<?xml version="1.0" standalone="yes"?>
<svg xmlns="http://www.w3.org/2000/svg" width="229" height="229">
<path style="fill:#000000; stroke:none;" d="M25 14L2 13L2 201L128 201C126.554 192.334 106.014 196 99 196L6 196L6 53L196 53L196 110C196 115.928 193.447 126.739 201 128L201 45C201 38.2138 204.237 19.9882 199.972 14.6034C196.747 10.5318 181.86 13 177 13C173.822 -2.7392 153.628 0.102737 150 14C131.124 8.42064 104.721 13 85 13C74.9243 13 62.6829 11.1379 53 14C48.2829 -1.88145 30.1847 -0.835052 25 14z"/>
<path style="fill:#ffffff; stroke:none;" d="M30 18L6 18L6 48L196 48L196 18L173 18C172.658 3.83838 155.342 3.83838 155 18L48 18C47.6576 3.83841 30.3424 3.83838 30 18z"/>
<path style="fill:#000000; stroke:none;" d="M39 31L39 36L134 36C141.107 36 162.543 39.7312 164 31L39 31M66 66L66 85L85 85L85 66L66 66M118 66L118 85L137 85L137 66L118 66M170 66L170 85L189 85L189 66L170 66z"/>
<path style="fill:#ffffff; stroke:none;" d="M70 80L80 80L80 70C71.6395 70.0064 70.0065 71.6395 70 80M123 70L123 80L133 80C132.994 71.6395 131.361 70.0064 123 70M175 70L175 80L185 80L185 70L175 70z"/>
<path style="fill:#000000; stroke:none;" d="M40 92L40 111L59 111L59 92L40 92M92 92L92 111L111 111L111 92L92 92M144 92L144 111L163 111L163 92L144 92z"/>
<path style="fill:#ffffff; stroke:none;" d="M44 106L54 106L54 96C45.6395 96.0064 44.0065 97.6395 44 106M96 106L106 106L106 96C97.6395 96.0064 96.0065 97.6395 96 106M149 96L149 106L159 106C158.994 97.6395 157.361 96.0064 149 96z"/>
<path style="fill:#000000; stroke:none;" d="M13 137L33 137L33 118L14.0278 119.603L13 137M66 118L66 137L85 137L85 118L66 118M118 118L118 137L137 137L137 118L118 118z"/>
<path style="fill:#ffffff; stroke:none;" d="M18 123L18 133L28 133L28 123L18 123M70 123C70.0065 131.361 71.6395 132.994 80 133L80 123L70 123M123 123L123 133C131.361 132.994 132.994 131.361 133 123L123 123z"/>
<path style="fill:#000000; stroke:none;" d="M180 135.514C172.161 136.009 164.874 137.734 158 141.68C116.332 165.6 138.124 230.193 185 226.91C242.68 222.872 237.646 131.87 180 135.514z"/>
<path style="fill:#ffffff; stroke:none;" d="M175 140.439C132.376 147.151 128.525 207.5 169 220.64C175.271 222.676 182.522 222.704 189 221.704C240.941 213.681 226.524 132.326 175 140.439z"/>
<path style="fill:#000000; stroke:none;" d="M40 144L40 163L59 163L59 144L40 144M92 144L92 163L111 163L111 144L92 144z"/>
<path style="fill:#ffffff; stroke:none;" d="M44 149L44 159L54 159L54 149L44 149M96 149C96.0065 157.361 97.6395 158.994 106 159L106 149L96 149z"/>
<path style="fill:#000000; stroke:none;" d="M173 196L172 196L156 179L155 179L152 182L152 183C156.393 187.393 166.351 200.804 173 200.793C177.105 200.787 181.379 194.621 184 192L211 165C206.41 160.525 202.645 165.381 199 169.001C190.334 177.607 180.038 186.009 173 196M13 189L33 189C33 184.315 34.4926 176.577 32.3966 172.318C30.6025 168.672 16.4339 168.565 14.0278 171.603C11.2099 175.161 13 184.637 13 189M66 170L66 189L85 189L85 170L66 170z"/>
<path style="fill:#ffffff; stroke:none;" d="M18 175L18 185L28 185L28 175L18 175M70 175L70 185L80 185L80 175L70 175z"/>
</svg>
