<?xml version="1.0" standalone="yes"?>
<svg xmlns="http://www.w3.org/2000/svg" width="1004" height="1004">
<path style="fill:#000000; stroke:none;" d="M792 696L791 696C774.862 722.368 760.781 750.088 745.576 777C738.352 789.785 725.513 805.64 722.39 820C720.107 830.499 722 843.265 722 854L722 922L92 922L92 82L722 82L722 465C735.497 451.913 744.239 427.508 753.306 411C761.571 395.95 769.896 380.903 778.421 366C782.724 358.479 789.701 349.486 791.606 341C795.899 321.884 792 297.615 792 278L792 146C792 102.561 802.19 42.4051 755 18.8102C738.68 10.6504 720.661 12 703 12L622 12L317 12L132 12C103.42 12 70.8131 7.10907 47 26.4676C15.4288 52.1329 22 95.9978 22 132L22 395L22 816L22 907C22 930.924 22.0943 954.614 40.0401 972.985C58.3604 991.74 82.6545 992 107 992L194 992L610 992L707 992C731.23 992 755.692 991.729 773.91 972.961C796.202 949.996 792 917.268 792 888L792 696M152 192L152 242L542 242L542 192L152 192M899 264C889.608 278.193 877.136 295.77 872 312L919 338.603L943 351L969 304L899 264M152 312L152 362L662 362L662 312L152 312M852 338C800.303 435.13 740.814 528.823 685.576 624C666.787 656.374 647.945 688.724 628.989 721C620.783 734.972 606.256 752.262 602.418 768C600.41 776.238 602 786.539 602 795L602 851C619.025 845.992 635.803 831.718 651 822.6C658.369 818.179 668.603 814.097 674.39 807.671C682.67 798.478 688.164 784.736 694.281 774C706.669 752.258 719.392 730.703 731.85 709C771.723 639.537 812.277 570.463 852.15 501C875.234 460.785 896.063 416.72 923 379C917.961 373.078 909.643 369.891 903 365.989C888.166 357.277 868.871 341.253 852 338M152 422L152 472L542 472L542 422L152 422M152 542L152 592L662 592L662 542L152 542M152 652L152 702L542 702L542 652L152 652M189 770.464C140.286 779.232 135.909 852.942 185 865.101C192.823 867.039 200.103 867.224 208 865.739C214.419 864.533 220.669 862.029 226 858.211C267.605 828.415 239.354 761.402 189 770.464M347 770.428C339.066 771.564 331.698 773.845 325 778.36C281.982 807.356 310.151 873.205 360 866.711C420.764 858.795 407.335 761.789 347 770.428z"/>
</svg>
