<?xml version="1.0" standalone="yes"?>
<svg xmlns="http://www.w3.org/2000/svg" width="516" height="516">
<path style="fill:#000000; stroke:none;" d="M78 10.4391C58.6639 13.459 44.495 25.7957 39.8989 45C36.3586 59.7928 39 77.82 39 93L39 189L39 418C39 445.227 31.1696 484.102 55.0008 503.532C69.5772 515.417 87.3669 514 105 514L197 514L266 514C273.701 514 287.049 516.549 293.945 512.821C302.665 508.107 298.909 494.305 290.985 491.009C278.698 485.9 257.27 490 244 490L122 490C107.936 490 85.5835 494.281 74.0154 484.66C65.8162 477.841 66 468.77 66 459L66 415L66 217L66 91C66 76.5293 61.5114 54.1242 73.0934 43.1883C79.8369 36.8209 88.4326 38 97 38L150 38L367 38L422 38C433.335 38 443.913 38.1862 449.558 50.0008C452.429 56.01 451 64.5019 451 71L451 116L451 276C451 293.124 448.094 313.196 451.34 330C452.678 336.927 459.551 343.474 467 341.333C476.451 338.616 477 330.164 477 322L477 267L477 92C477 67.8387 482.167 39.0569 461.996 21.1852C449.11 9.76755 433.11 10 417 10L361 10L172 10C141.71 10 107.906 5.76834 78 10.4391M132.001 126.649C120.034 130.276 118.224 147.335 131 151.347C136.994 153.23 144.771 152 151 152L192 152L329 152L373 152C379.621 152 387.482 153.272 392.892 148.606C400.3 142.216 397.772 130.949 388.996 127.228C377.557 122.378 358.34 126 346 126L199 126L154 126C147.148 126 138.605 124.647 132.001 126.649M128 238.653C115.483 242.584 115.917 259.039 128.001 263.146C134.009 265.188 141.73 264 148 264L189 264L326 264L369 264C376.144 264 384.065 264.775 389.811 259.606C396.673 253.434 394.442 242.471 385.996 239.009C374.108 234.136 353.805 238 341 238L194 238L150 238C143.19 238 134.546 236.597 128 238.653M133 357.533C121.002 360.449 117.555 376.926 130.001 381.991C140.712 386.35 158.494 383 170 383L262 383C272.461 383 295.094 387.241 303.816 381.106C314.285 373.743 312.188 359.23 299 357.213C287.813 355.502 275.316 357 264 357L194 357C175.132 357 151.323 353.079 133 357.533M371 480C359.739 468.739 347.883 452.259 334 444.367C323.408 438.346 315.201 446.221 314.177 457C313.374 465.463 321.332 470.287 327 475.285C338.946 485.822 350.211 497.184 362 507.907C366.823 512.293 373.669 516.186 379.999 512.258C387.803 507.415 393.906 497.72 400.086 491C416.219 473.457 431.89 455.481 448.089 438C456.138 429.314 470.796 418.052 475.138 407C479.057 397.026 469.263 382.55 458.015 386.894C448.345 390.629 439.144 405.567 432.039 413C424.538 420.848 417.56 429.222 409.985 437C396.851 450.486 381.632 464.451 371 480z"/>
</svg>
